HIERARCHY
ROOT Hip
{
  OFFSET 0.0 0.0 0.0
  CHANNELS 6 Xposition Yposition Zposition Xrotation Yrotation Zrotation
  JOINT LowerSpine
  {
    OFFSET 0.0 0.613667309 -0.332081616
    CHANNELS 3 Xrotation Yrotation Zrotation
    JOINT MiddleSpine
    {
      OFFSET 0.0 0.560024083 0.029251534
      CHANNELS 3 Xrotation Yrotation Zrotation
      JOINT Chest
      {
        OFFSET 0.0 0.69296515 -0.154244974
        CHANNELS 3 Xrotation Yrotation Zrotation
        JOINT Neck
        {
          OFFSET 0.0 1.561565161 -0.032478195
          CHANNELS 3 Xrotation Yrotation Zrotation
          JOINT Head
          {
            OFFSET 0.0 0.881830573 0.239857286
            CHANNELS 3 Xrotation Yrotation Zrotation
            End Site
            {
              OFFSET 6.612e-06 1.23214817 0.036782615
            }
          }
        }
        JOINT LClavicle
        {
          OFFSET 0.157650173 1.506982923 0.516298831
          CHANNELS 3 Xrotation Yrotation Zrotation
          JOINT LShoulder
          {
            OFFSET 0.921026587 0.21615985 -0.349762142
            CHANNELS 3 Xrotation Yrotation Zrotation
            JOINT LForearm
            {
              OFFSET 1.956454158 -0.006949223 -0.016953195
              CHANNELS 3 Xrotation Yrotation Zrotation
              JOINT LHand
              {
                OFFSET 1.632095456 0.004734199 -0.009772551
                CHANNELS 3 Xrotation Yrotation Zrotation
                JOINT LFinger1
                {
                  OFFSET 0.632551193 0.055316079 0.17568773
                  CHANNELS 3 Xrotation Yrotation Zrotation
                  JOINT LFinger11
                  {
                    OFFSET 0.236604184 -0.057696406 0.041688729
                    CHANNELS 3 Xrotation Yrotation Zrotation
                    JOINT LFinger12
                    {
                      OFFSET 0.161524802 -0.039407585 0.028471317
                      CHANNELS 3 Xrotation Yrotation Zrotation
                      End Site
                      {
                        OFFSET 0.114943191 -0.034309722 0.01864587
                      }
                    }
                  }
                }
                JOINT LFinger2
                {
                  OFFSET 0.641993165 0.063885242 0.015300192
                  CHANNELS 3 Xrotation Yrotation Zrotation
                  JOINT LFinger21
                  {
                    OFFSET 0.292548418 0.000813277 -0.001725735
                    CHANNELS 3 Xrotation Yrotation Zrotation
                    JOINT LFinger22
                    {
                      OFFSET 0.162152946 0.000489289 -0.00098519
                      CHANNELS 3 Xrotation Yrotation Zrotation
                      End Site
                      {
                        OFFSET 0.145649374 -0.010281676 0.00019836
                      }
                    }
                  }
                }
                JOINT LFinger3
                {
                  OFFSET 0.608417392 0.042627633 -0.143936858
                  CHANNELS 3 Xrotation Yrotation Zrotation
                  JOINT LFinger31
                  {
                    OFFSET 0.265459001 -0.013442217 -0.016615983
                    CHANNELS 3 Xrotation Yrotation Zrotation
                    JOINT LFinger32
                    {
                      OFFSET 0.151269585 -0.007610424 -0.009508071
                      CHANNELS 3 Xrotation Yrotation Zrotation
                      End Site
                      {
                        OFFSET 0.133747742 -0.01644407 -0.006321082
                      }
                    }
                  }
                }
                JOINT LFinger4
                {
                  OFFSET 0.564586341 -0.042911947 -0.248591766
                  CHANNELS 3 Xrotation Yrotation Zrotation
                  JOINT LFinger41
                  {
                    OFFSET 0.163283601 -0.034051854 -0.045074075
                    CHANNELS 3 Xrotation Yrotation Zrotation
                    JOINT LFinger42
                    {
                      OFFSET 0.119736895 -0.024940504 -0.033073276
                      CHANNELS 3 Xrotation Yrotation Zrotation
                      End Site
                      {
                        OFFSET 0.106274851 -0.029198637 -0.024385097
                      }
                    }
                  }
                }
                JOINT LFinger0
                {
                  OFFSET 0.13084507 -0.099041305 0.099193387
                  CHANNELS 3 Xrotation Yrotation Zrotation
                  JOINT LFinger01
                  {
                    OFFSET 0.243626148 -0.08001855 0.183681667
                    CHANNELS 3 Xrotation Yrotation Zrotation
                    JOINT LFinger02
                    {
                      OFFSET 0.160427213 -0.057398863 0.115577944
                      CHANNELS 3 Xrotation Yrotation Zrotation
                      End Site
                      {
                        OFFSET 0.117971487 -0.040610969 0.080778927
                      }
                    }
                  }
                }
              }
            }
          }
        }
        JOINT RClavicle
        {
          OFFSET -0.157650173 1.506982923 0.516298831
          CHANNELS 3 Xrotation Yrotation Zrotation
          JOINT RShoulder
          {
            OFFSET -0.921191931 0.216192916 -0.349821627
            CHANNELS 3 Xrotation Yrotation Zrotation
            JOINT RForearm
            {
              OFFSET -1.956454158 -0.006949223 -0.016953195
              CHANNELS 3 Xrotation Yrotation Zrotation
              JOINT RHand
              {
                OFFSET -1.6320889 0.004734199 -0.009772551
                CHANNELS 3 Xrotation Yrotation Zrotation
                JOINT RFinger1
                {
                  OFFSET -0.632551193 0.055316079 0.17568773
                  CHANNELS 3 Xrotation Yrotation Zrotation
                  JOINT RFinger11
                  {
                    OFFSET -0.236604184 -0.057696406 0.041688729
                    CHANNELS 3 Xrotation Yrotation Zrotation
                    JOINT RFinger12
                    {
                      OFFSET -0.161524802 -0.039407585 0.028471317
                      CHANNELS 3 Xrotation Yrotation Zrotation
                      End Site
                      {
                        OFFSET -0.114943191 -0.034309722 0.01864587
                      }
                    }
                  }
                }
                JOINT RFinger2
                {
                  OFFSET -0.641993165 0.063885242 0.015300192
                  CHANNELS 3 Xrotation Yrotation Zrotation
                  JOINT RFinger21
                  {
                    OFFSET -0.292548418 0.000813277 -0.001725735
                    CHANNELS 3 Xrotation Yrotation Zrotation
                    JOINT RFinger22
                    {
                      OFFSET -0.162152946 0.000489289 -0.00098519
                      CHANNELS 3 Xrotation Yrotation Zrotation
                      End Site
                      {
                        OFFSET -0.145649374 -0.010281676 0.00019836
                      }
                    }
                  }
                }
                JOINT RFinger3
                {
                  OFFSET -0.608417392 0.042627633 -0.143936858
                  CHANNELS 3 Xrotation Yrotation Zrotation
                  JOINT RFinger31
                  {
                    OFFSET -0.265459001 -0.013442217 -0.016615983
                    CHANNELS 3 Xrotation Yrotation Zrotation
                    JOINT RFinger32
                    {
                      OFFSET -0.151269585 -0.007610424 -0.009508071
                      CHANNELS 3 Xrotation Yrotation Zrotation
                      End Site
                      {
                        OFFSET -0.133747742 -0.01644407 -0.006321082
                      }
                    }
                  }
                }
                JOINT RFinger4
                {
                  OFFSET -0.564586341 -0.042905334 -0.248591766
                  CHANNELS 3 Xrotation Yrotation Zrotation
                  JOINT RFinger41
                  {
                    OFFSET -0.163283601 -0.034051854 -0.045074075
                    CHANNELS 3 Xrotation Yrotation Zrotation
                    JOINT RFinger42
                    {
                      OFFSET -0.119736895 -0.024940504 -0.033073276
                      CHANNELS 3 Xrotation Yrotation Zrotation
                      End Site
                      {
                        OFFSET -0.106274851 -0.029198637 -0.024385097
                      }
                    }
                  }
                }
                JOINT RFinger0
                {
                  OFFSET -0.13084507 -0.099041305 0.099193387
                  CHANNELS 3 Xrotation Yrotation Zrotation
                  JOINT RFinger01
                  {
                    OFFSET -0.243626148 -0.08001855 0.183681667
                    CHANNELS 3 Xrotation Yrotation Zrotation
                    JOINT RFinger02
                    {
                      OFFSET -0.160427213 -0.057398863 0.115577944
                      CHANNELS 3 Xrotation Yrotation Zrotation
                      End Site
                      {
                        OFFSET -0.117971487 -0.040610969 0.080778927
                      }
                    }
                  }
                }
              }
            }
          }
        }
      }
    }
  }
  JOINT RThigh
  {
    OFFSET -0.656473458 0.277400315 -0.054112695
    CHANNELS 3 Xrotation Yrotation Zrotation
    JOINT RShin
    {
      OFFSET -0.052532423 -2.855376959 0.0
      CHANNELS 3 Xrotation Yrotation Zrotation
      JOINT RFoot
      {
        OFFSET 0.0 -2.803803205 0.0
        CHANNELS 3 Xrotation Yrotation Zrotation
        JOINT RToe
        {
          OFFSET 0.0 -0.308165967 0.644406557
          CHANNELS 3 Xrotation Yrotation Zrotation
          End Site
          {
            OFFSET 0.0 0.0 0.432306468
          }
        }
      }
    }
  }
  JOINT LThigh
  {
    OFFSET 0.656466842 0.277420133 -0.054112695
    CHANNELS 3 Xrotation Yrotation Zrotation
    JOINT LShin
    {
      OFFSET 0.052532423 -2.855396748 0.0
      CHANNELS 3 Xrotation Yrotation Zrotation
      JOINT LFoot
      {
        OFFSET 0.0 -2.803803205 0.0
        CHANNELS 3 Xrotation Yrotation Zrotation
        JOINT LToe
        {
          OFFSET 0.0 -0.308165967 0.644413173
          CHANNELS 3 Xrotation Yrotation Zrotation
          End Site
          {
            OFFSET 0.0 0.0 0.432306468
          }
        }
      }
    }
  }
}
MOTION
Frames: 4
Frame Time: 0.0333333
5.596277237 5.596277237 5.596277237 8.056070328 -51.992744446 -7.576812744 -2.383618593 0.429609746 -1.397382736 0.123074792 -2.031325817 3.832200289 -2.996106148 -6.975466251 14.994771957 -5.240497589 1.524291039 -4.109576702 -1.291451216 -0.241760626 1.976493001 1.498927116 -3.521390915 -18.161478043 24.160686493 -39.756015778 -60.664222717 8.485383987 -18.00204277 -1.671068549 -0.135460109 0.080027185 0.270133078 0.168093726 -0.083312668 -0.044716049 0.16121909 -0.14659293 0.075429559 0.085995942 -0.332368344 0.002502903 0.167035609 0.07503815 0.140181884 0.078161635 -0.02653324 -0.291959226 0.083582014 -0.039805971 0.277062178 -0.15165028 0.077969834 -0.048462156 -0.039721038 0.221944749 -0.001077337 -0.125465006 0.031826846 0.022136554 0.34308058 -0.106037728 0.078257866 -0.165094107 -0.078574762 -0.148571223 -0.098642893 -0.089760713 -0.044046029 -0.056179333 -0.177580893 0.10676033 -0.075656161 -0.065554142 -0.027179427 -0.117112249 -0.171411797 -0.039118413 2.112410307 1.67212832 8.803149223 21.891395569 28.614599228 47.316082001 5.306193352 47.90896225 -1.713276744 -0.170548454 0.020078942 -0.288726151 0.097881123 -0.231286317 -0.153188944 -0.039367575 -0.087050363 -0.154629573 -0.058409292 -0.280075312 -0.084290802 0.04237882 -0.086972952 -0.154826432 0.123194739 -0.039029676 -0.057816904 0.067911364 0.152122289 0.354361117 -0.069674313 -0.068022817 0.198968187 -0.107334405 0.139529854 -0.085127413 0.050795622 -0.084444113 0.240396813 0.031422369 0.043223839 0.250454515 -0.095049486 -0.078742221 -0.125951409 0.058623988 0.165897846 -0.121662267 0.129796728 -0.000870826 -0.126094416 0.150228277 -0.217223957 -0.075779624 -0.13840647 -0.062916726 0.048121881 0.677846014 -1.899998307 19.132722855 14.193043709 2.34847188 3.852610588 -3.854966164 8.74469471 4.903353691 2.745485544 0.170752093 -0.263515413 -18.096179962 -14.823964119 4.398321152 1.142948389 -10.641993523 0.951093376 9.914108276 -3.665855169 -2.996083498 -0.791690707 0.064600453 0.018558946 
5.56705904 5.56705904 5.56705904 8.801629066 -60.957569122 -4.647375584 -1.945101023 0.824190855 -1.342232108 -0.260651737 -2.232014656 3.050825119 -3.555080175 -6.847073078 14.376290321 -3.844495296 1.462555647 -3.501801014 -1.456699491 -0.233955249 2.2798388 2.394836426 -4.006241322 -17.502084732 23.904634476 -39.371368408 -60.604335785 9.173347473 -17.934322357 -2.149034262 -0.115907736 0.046702571 0.288889885 0.091170058 -0.094693162 -0.115157098 0.073620424 -0.114099912 0.023506587 0.106200375 -0.33755061 0.007825794 0.16135107 0.02732371 0.131507054 0.152135819 -0.021492645 -0.22212559 0.079299308 -0.012475017 0.206161901 -0.153282344 0.10193193 -0.025412599 -0.034029879 0.21952711 -0.020772118 -0.15255034 -0.051109407 -0.004838947 0.30434081 -0.149844557 0.01218797 -0.173234746 -0.087235309 -0.081329621 -0.074442364 -0.118678778 -0.109646603 -0.094559386 -0.234358251 0.075654827 -0.122519225 0.007228043 -0.009270155 -0.054655712 -0.195095226 0.004224844 1.20870626 1.721653223 9.249130249 20.332294464 30.082826614 50.191524506 5.456329346 46.315189362 -1.375781059 -0.186982036 0.053389031 -0.314550132 0.064008765 -0.217298567 -0.17625621 -0.056737069 -0.057781573 -0.153281823 -0.023397312 -0.277276456 -0.056530662 0.079940893 -0.074047267 -0.037594076 0.069619767 -0.045975208 -0.040867757 0.054940425 0.122375049 0.310153633 -0.03167922 -0.003977234 0.174524322 -0.11880786 0.138702258 -0.032195803 0.010643792 -0.053447437 0.2272937 0.035225879 -0.065313093 0.282985628 -0.142466173 -0.123313747 -0.119459383 0.059302833 0.144407988 -0.034705047 0.120403856 0.09073583 -0.143716559 0.16901882 -0.139440566 -0.060751259 -0.110126503 -0.031903569 0.055164218 3.202027321 -2.513272524 17.241195679 15.417069435 0.863142729 4.556089878 -2.910994291 7.591996193 4.330786705 1.644896388 0.145789668 -0.229885757 -18.288820267 -13.419453621 3.679588556 2.773970842 -9.229344368 0.65855819 8.248926163 -3.580519676 -3.011364937 -0.928282678 0.049181916 0.07881365 
5.560406208 5.560406208 5.560406208 9.874733925 -67.947402954 -1.987462282 -1.880271912 1.314270973 -1.223634362 -0.150516391 -1.980790257 2.862209797 -2.981689215 -6.593238831 13.938569069 -4.546921253 1.447398782 -3.568886518 -1.399025083 -0.19490616 2.668667078 2.718406439 -3.891758204 -17.333545685 23.9486866 -38.660919189 -61.041004181 10.268353462 -18.242351532 -2.482401609 -0.063340843 0.001201588 0.222485825 0.005549716 -0.079167955 -0.117994852 0.0015466 -0.083407648 -0.013346999 0.095579557 -0.300787568 -0.000715111 0.125425711 -0.034204926 0.118592605 0.159314528 0.019330846 -0.067119323 0.083995037 -0.009674159 0.146429002 -0.114829019 0.065550193 -0.017454205 -0.027670896 0.187375963 -0.022255609 -0.121124245 -0.111048631 -0.011526167 0.255457908 -0.158414707 0.013712239 -0.113028988 -0.067870192 -0.016713578 -0.06273704 -0.138583362 -0.113522813 -0.101751894 -0.232774481 0.052039336 -0.123608708 0.054649491 -0.014312085 0.012239122 -0.180101886 0.059106484 -0.10668806 1.953289628 9.646674156 18.395441055 27.7817173 51.988105774 3.462624073 44.370197296 -0.276022464 -0.141286001 0.048291977 -0.281371474 0.077010766 -0.200676337 -0.188157976 -0.062814727 -0.002303998 -0.140355557 -0.021327749 -0.248380259 0.022276701 0.090273067 -0.055724941 0.012013741 0.037841775 -0.048917685 -0.027163658 0.050979123 0.05716797 0.254645735 -0.005785475 0.07034447 0.173973918 -0.127220064 0.119037963 0.036418106 -0.032831371 -0.010652913 0.156481862 0.056140453 -0.127691627 0.242539644 -0.150631696 -0.064520545 -0.109294698 0.048682295 0.063792534 0.030324424 0.053209841 0.089556411 -0.138392583 0.094142437 -0.045343004 -0.071196087 -0.042828478 -0.01463428 0.066950701 5.967338085 -3.008513689 15.444055557 14.641735077 -0.535515904 5.067315578 -3.190113783 6.660794258 4.057494164 1.067526579 0.110837951 -0.216079473 -17.876811981 -13.496496201 3.188869238 3.555624247 -9.459169388 1.044310331 7.507122517 -3.8316257 -3.142253637 -0.888496876 0.043722827 0.120982692 
5.572286606 5.572286606 5.572286606 12.029129982 -75.592094421 1.953714132 -1.243584275 1.903907776 -0.924830258 -0.128644153 -1.466281533 2.681030273 -2.266482592 -5.949780941 12.562812805 -4.253072262 1.434858799 -4.006793976 -1.038285613 -0.15721941 3.455230236 2.185926437 -3.620198727 -17.617586136 24.246278763 -36.694404602 -61.988880157 10.989320755 -18.468637466 -2.967918396 0.085536599 -0.047152448 0.1781293 -0.047131184 -0.041242294 -0.101941906 -0.073118493 -0.051951393 0.010730922 0.004775148 -0.195066601 -0.017816098 0.019881591 -0.022307297 0.064168014 0.119783685 0.02365458 0.035639238 0.070304707 -0.026589185 0.066159479 -0.103757635 0.004109238 0.029094221 -0.029927127 0.129900753 0.003295752 -0.064959094 -0.146707818 -0.013537684 0.211040676 -0.18056117 0.04057223 -0.131892145 -0.086954445 0.035086837 -0.042107143 -0.159788534 -0.158347204 -0.138130173 -0.194553033 0.022042235 -0.089975394 0.042016152 -0.039740514 0.048335467 -0.122667544 0.112551637 -1.775765419 2.722237587 10.291117668 17.350484848 27.221691132 51.553474426 3.566541195 39.733692169 0.755283952 -0.108382173 -0.006380132 -0.241673782 0.074365206 -0.173505709 -0.1177378 -0.071845852 0.026924357 -0.078285299 -0.021910105 -0.237948537 0.016423041 0.029234605 -0.053205881 -0.011119462 -0.004891485 -0.071079709 -0.023684073 0.073457047 -0.006396496 0.206123531 0.033204298 0.069048002 0.187915757 -0.08923015 0.077421293 0.062474795 -0.045724288 0.005003391 0.079848684 0.041331619 -0.19351235 0.141986266 -0.104884073 0.008816348 -0.036490124 0.074449971 -0.019824801 0.035789464 0.019805126 0.074308142 -0.09058556 0.036495622 0.080578372 -0.097521409 0.03609965 0.011258597 0.068104886 7.172384262 -3.294942856 12.939836502 15.585906029 -2.112849474 5.115306377 -4.406174183 5.664768219 3.419105768 0.421004981 0.102030009 -0.139903545 -17.749399185 -12.693161011 3.419332504 3.877581358 -8.806869507 1.265866041 6.93927145 -3.23942399 -2.820878744 -0.650042534 0.009342977 0.060282424 
